# xmcd CD database file
#
# Track frame offsets:
#	150
#	17256
#	42464
#	67606
#	86969
#	105521
#	128049
#	149456
#	170644
#	191304
#
# Disc length: 2803 seconds
#
# Revision: 1
# Processed by: cddbd v1.5.2PL0 Copyright (c) Steve Scherf et al.
# Submitted via: CDex 1.70beta2
#
DISCID=7d0af10a
DTITLE=Perfect - Perfect Ballady
DYEAR=1991
DGENRE=Ballad
TTITLE0=Niewiele ci moge dac
TTITLE1=Nie placze Ewka
TTITLE2=Pepe wroc
TTITLE3=Obracam w palcach zloty pieniadz
TTITLE4=Zywy stad nie wyjdzie nikt - live
TTITLE5=Nie boj sie tego wszystkiego
TTITLE6=Wieczorny przeglad moich mysli
TTITLE7=Objazdowy nieme kino
TTITLE8=Autobiografia
TTITLE9=Co sie Stalo z Magda K.
EXTD=YEAR: 1991
EXTT0=
EXTT1=
EXTT2=
EXTT3=
EXTT4=
EXTT5=
EXTT6=
EXTT7=
EXTT8=
EXTT9=
PLAYORDER=
